<?xml version="1.0" standalone="no"?>
<svg
  xmlns="http://www.w3.org/2000/svg"
  width="512"
  height="512"
  viewBox="0 0 512 512"
  preserveAspectRatio="xMidYMid meet"
>
  <!-- 1) Объявляем градиент -->
  <defs>
    <linearGradient id="viteGradient" x1="0%" y1="0%" x2="100%" y2="100%">
      <stop offset="0%" stop-color="#646cff"/>
      <stop offset="100%" stop-color="#c069e6"/>
    </linearGradient>
  </defs>

  <!-- 2) Группируем и меняем fill на градиент -->
  <g
    transform="translate(0,512) scale(0.1,-0.1)"
    fill="url(#viteGradient)"
    stroke="none"
  >
    <path d="M2475 4534 c-229 -37 -420 -175 -519 -374 -75 -153 -76 -163 -76
    -840 0 -633 3 -673 53 -797 74 -182 242 -334 437 -395 60 -18 98 -23 190 -23
    92 0 130 5 190 23 195 61 363 213 437 395 50 124 53 164 53 798 0 675 -1 683
    -77 839 -83 170 -251 308 -432 355 -66 17 -204 27 -256 19z"/>
    <path d="M1295 2969 c-17 -4 -44 -22 -60 -39 -30 -31 -30 -32 -29 -143 4 -487
    338 -974 809 -1181 83 -36 243 -86 276 -86 18 0 19 -16 19 -462 0 -255 5 -481
    10 -502 5 -22 23 -53 40 -70 l30 -31 170 0 170 0 30 31 c17 17 35 48 40 70 5
    21 10 246 10 499 l0 460 88 21 c371 90 708 364 880 716 92 188 134 354 136
    536 l1 113 -37 34 c-64 59 -181 60 -245 1 -34 -30 -36 -36 -44 -126 -17 -177
    -45 -282 -110 -414 -187 -378 -603 -611 -1014 -566 -139 15 -230 41 -360 105
    -314 153 -527 456 -565 805 -17 161 -18 165 -48 193 -45 43 -124 58 -197 36z"/>
  </g>
</svg>
